# xmcd
#
# Track frame offsets:
#	150
#	14187
#	27785
#	44357
#	56230
#	70187
#	83520
#	96912
#	112770
#	126105
#	141242
#	152597
#	162830
#	183282
#	199152
#	213477
#	229427
#	245192
#	259065
#	279282
#
# Disc length: 3961
#
# Revision: 2
# Processed by: cddbd v1.5.1PL0 Copyright (c) Steve Scherf et al.
# Submitted via: audiograbber 1.80
# Normalized: r1:DSETVAR2
#
DISCID=1f0f7714
DTITLE=Various Artist - Country Trakks 3
DYEAR=1900
DGENRE=
TTITLE0=Anne Murray - Danny's Song
TTITLE1=Waylon Jennings/Willie Nelson - Good Hearted Woman
TTITLE2=Clint Black/Wynonna - A Bad Goodbye
TTITLE3=Tanya Tucker - It's A Little Too Late
TTITLE4=Glen Campbell - Wichita Lineman
TTITLE5=Mark Chesnutt - It Sure Is Monday
TTITLE6=Carlene Carter - Come On Back
TTITLE7=George Strait - I Cross My Heart
TTITLE8=Hal Ketchum - Small Town Saturday Night
TTITLE9=Rosanne Cash/Rodney Crowell - It's Such A Small World
TTITLE10=Patty Loveless - Timber I'm Falling In Love
TTITLE11=Hank Williams Jr. - Honky Tonkin'
TTITLE12=Kenny Rogers - Coward Of The County
TTITLE13=Aaron Tippin - Workin' Man's Ph.D
TTITLE14=John Michael Montgomery - Life's A Dance
TTITLE15=Mary Chapin Carpenter - I Feel Lucky
TTITLE16=Marty Stuart/Travis Tritt - This One's Gonna Hurt ( For A long Long Time )
TTITLE17=Tracy Lawrence - Alibis
TTITLE18=Dwight Yoakam - A Thousand Miles From Nowhere
TTITLE19=Brooks and Dunn - She Used To Be Mine
EXTD=
EXTT0=
EXTT1=
EXTT2=
EXTT3=
EXTT4=
EXTT5=
EXTT6=
EXTT7=
EXTT8=
EXTT9=
EXTT10=
EXTT11=
EXTT12=
EXTT13=
EXTT14=
EXTT15=
EXTT16=
EXTT17=
EXTT18=
EXTT19=
PLAYORDER=
